HIERARCHY
ROOT Hips
{
	OFFSET 2.433734 86.173073 3.643662
	CHANNELS 6 Xposition Yposition Zposition Zrotation Yrotation Xrotation 
	JOINT Spine
	{
		OFFSET -0.000000 8.814246 -2.080107
		CHANNELS 3 Zrotation Yrotation Xrotation
		JOINT Spine1
		{
			OFFSET 0.000000 8.844141 0.000000
			CHANNELS 3 Zrotation Yrotation Xrotation
			JOINT Spine2
			{
				OFFSET 0.000000 11.682268 -0.000000
				CHANNELS 3 Zrotation Yrotation Xrotation
				JOINT Spine3
				{
					OFFSET -0.000000 11.746700 -0.000000
					CHANNELS 3 Zrotation Yrotation Xrotation
					JOINT Neck
					{
						OFFSET -0.000000 17.658264 0.000000
						CHANNELS 3 Zrotation Yrotation Xrotation
						JOINT Neck1
						{
							OFFSET -0.000000 5.101515 -0.000000
							CHANNELS 3 Zrotation Yrotation Xrotation
							JOINT Head
							{
								OFFSET 0.000000 5.101515 -0.000000
								CHANNELS 3 Zrotation Yrotation Xrotation
								JOINT HeadEnd
								{
									OFFSET -0.000000 11.655085 -0.000000
									CHANNELS 3 Zrotation Yrotation Xrotation
									End Site
									{
										OFFSET 0.000000 0.000000 0.000000
									}
								}
							}
						}
					}
					JOINT RightShoulder
					{
						OFFSET -2.625389 11.175210 -0.000000
						CHANNELS 3 Zrotation Yrotation Xrotation
						JOINT RightArm
						{
							OFFSET -0.000000 10.434715 0.000000
							CHANNELS 3 Zrotation Yrotation Xrotation
							JOINT RightForeArm
							{
								OFFSET 0.000000 29.628420 -0.000000
								CHANNELS 3 Zrotation Yrotation Xrotation
								JOINT RightHand
								{
									OFFSET 0.000000 22.857611 0.000000
									CHANNELS 3 Zrotation Yrotation Xrotation
									JOINT RightHandThumb1
									{
										OFFSET -2.867323 3.959563 2.944291
										CHANNELS 3 Zrotation Yrotation Xrotation
										JOINT RightHandThumb2
										{
											OFFSET 0.000000 3.350399 0.000000
											CHANNELS 3 Zrotation Yrotation Xrotation
											JOINT RightHandThumb3
											{
												OFFSET -0.000000 3.756509 -0.000000
												CHANNELS 3 Zrotation Yrotation Xrotation
												JOINT RightHandThumb4
												{
													OFFSET -0.000000 3.147345 -0.000000
													CHANNELS 3 Zrotation Yrotation Xrotation
													End Site
													{
														OFFSET 0.000000 0.000000 0.000000
													}
												}
											}
										}
									}
									JOINT RightHandIndex1
									{
										OFFSET -0.086752 10.030893 2.345280
										CHANNELS 3 Zrotation Yrotation Xrotation
										JOINT RightHandIndex2
										{
											OFFSET -0.000000 4.061090 0.000000
											CHANNELS 3 Zrotation Yrotation Xrotation
											JOINT RightHandIndex3
											{
												OFFSET 0.000000 3.248873 0.000000
												CHANNELS 3 Zrotation Yrotation Xrotation
												JOINT RightHandIndex4
												{
													OFFSET 0.000000 2.639709 0.000000
													CHANNELS 3 Zrotation Yrotation Xrotation
													End Site
													{
														OFFSET 0.000000 0.000000 0.000000
													}
												}
											}
										}
									}
									JOINT RightHandMiddle1
									{
										OFFSET 0.104102 9.502952 0.006768
										CHANNELS 3 Zrotation Yrotation Xrotation
										JOINT RightHandMiddle2
										{
											OFFSET -0.000000 4.568727 -0.000000
											CHANNELS 3 Zrotation Yrotation Xrotation
											JOINT RightHandMiddle3
											{
												OFFSET -0.000000 3.654981 0.000000
												CHANNELS 3 Zrotation Yrotation Xrotation
												JOINT RightHandMiddle4
												{
													OFFSET 0.000000 2.741236 0.000000
													CHANNELS 3 Zrotation Yrotation Xrotation
													End Site
													{
														OFFSET 0.000000 0.000000 0.000000
													}
												}
											}
										}
									}
									JOINT RightHandRing1
									{
										OFFSET 0.086752 8.921708 -2.267442
										CHANNELS 3 Zrotation Yrotation Xrotation
										JOINT RightHandRing2
										{
											OFFSET -0.000000 4.061090 -0.000000
											CHANNELS 3 Zrotation Yrotation Xrotation
											JOINT RightHandRing3
											{
												OFFSET 0.000000 3.654981 0.000000
												CHANNELS 3 Zrotation Yrotation Xrotation
												JOINT RightHandRing4
												{
													OFFSET -0.000000 2.741236 -0.000000
													CHANNELS 3 Zrotation Yrotation Xrotation
													End Site
													{
														OFFSET 0.000000 0.000000 0.000000
													}
												}
											}
										}
									}
									JOINT RightHandPinky1
									{
										OFFSET -0.173504 7.976997 -4.467199
										CHANNELS 3 Zrotation Yrotation Xrotation
										JOINT RightHandPinky2
										{
											OFFSET 0.000000 3.350399 0.000000
											CHANNELS 3 Zrotation Yrotation Xrotation
											JOINT RightHandPinky3
											{
												OFFSET 0.000000 2.842763 0.000000
												CHANNELS 3 Zrotation Yrotation Xrotation
												JOINT RightHandPinky4
												{
													OFFSET 0.000000 2.639709 0.000000
													CHANNELS 3 Zrotation Yrotation Xrotation
													End Site
													{
														OFFSET 0.000000 0.000000 0.000000
													}
												}
											}
										}
									}
									JOINT RightForeArmEnd
									{
										OFFSET 0.000000 0.000000 0.000000
										CHANNELS 3 Zrotation Yrotation Xrotation
										End Site
										{
											OFFSET 0.000000 0.000000 0.000000
										}
									}
								}
								JOINT RightArmEnd
								{
									OFFSET 0.000000 0.000000 0.000000
									CHANNELS 3 Zrotation Yrotation Xrotation
									End Site
									{
										OFFSET 0.000000 0.000000 0.000000
									}
								}
							}
						}
					}
					JOINT LeftShoulder
					{
						OFFSET 2.625389 11.175210 -0.000000
						CHANNELS 3 Zrotation Yrotation Xrotation
						JOINT LeftArm
						{
							OFFSET 0.000000 10.813635 0.000000
							CHANNELS 3 Zrotation Yrotation Xrotation
							JOINT LeftForeArm
							{
								OFFSET 0.000000 28.724781 0.000000
								CHANNELS 3 Zrotation Yrotation Xrotation
								JOINT LeftHand
								{
									OFFSET 0.644384 25.716167 -0.328871
									CHANNELS 3 Zrotation Yrotation Xrotation
									JOINT LeftHandThumb1
									{
										OFFSET 2.867323 3.959563 2.944291
										CHANNELS 3 Zrotation Yrotation Xrotation
										JOINT LeftHandThumb2
										{
											OFFSET 0.000000 3.350399 0.000000
											CHANNELS 3 Zrotation Yrotation Xrotation
											JOINT LeftHandThumb3
											{
												OFFSET -0.000000 3.756509 -0.000000
												CHANNELS 3 Zrotation Yrotation Xrotation
												JOINT LeftHandThumb4
												{
													OFFSET -0.000000 3.100000 0.000000
													CHANNELS 3 Zrotation Yrotation Xrotation
													End Site
													{
														OFFSET 0.000000 0.000000 0.000000
													}
												}
											}
										}
									}
									JOINT LeftHandIndex1
									{
										OFFSET 0.086752 10.030893 2.345280
										CHANNELS 3 Zrotation Yrotation Xrotation
										JOINT LeftHandIndex2
										{
											OFFSET -0.000000 4.061090 0.000000
											CHANNELS 3 Zrotation Yrotation Xrotation
											JOINT LeftHandIndex3
											{
												OFFSET 0.000000 3.248873 0.000000
												CHANNELS 3 Zrotation Yrotation Xrotation
												JOINT LeftHandIndex4
												{
													OFFSET -0.000000 2.639709 0.000000
													CHANNELS 3 Zrotation Yrotation Xrotation
													End Site
													{
														OFFSET 0.000000 0.000000 0.000000
													}
												}
											}
										}
									}
									JOINT LeftHandMiddle1
									{
										OFFSET -0.104102 9.502952 0.006768
										CHANNELS 3 Zrotation Yrotation Xrotation
										JOINT LeftHandMiddle2
										{
											OFFSET -0.000000 4.568727 0.000000
											CHANNELS 3 Zrotation Yrotation Xrotation
											JOINT LeftHandMiddle3
											{
												OFFSET 0.000000 3.654981 -0.000000
												CHANNELS 3 Zrotation Yrotation Xrotation
												JOINT LeftHandMiddle4
												{
													OFFSET -0.000000 2.741236 0.000000
													CHANNELS 3 Zrotation Yrotation Xrotation
													End Site
													{
														OFFSET 0.000000 0.000000 0.000000
													}
												}
											}
										}
									}
									JOINT LeftHandRing1
									{
										OFFSET -0.086752 8.921708 -2.267442
										CHANNELS 3 Zrotation Yrotation Xrotation
										JOINT LeftHandRing2
										{
											OFFSET -0.000000 4.061090 0.000000
											CHANNELS 3 Zrotation Yrotation Xrotation
											JOINT LeftHandRing3
											{
												OFFSET 0.000000 3.654981 0.000000
												CHANNELS 3 Zrotation Yrotation Xrotation
												JOINT LeftHandRing4
												{
													OFFSET 0.000000 2.741236 -0.000000
													CHANNELS 3 Zrotation Yrotation Xrotation
													End Site
													{
														OFFSET 0.000000 0.000000 0.000000
													}
												}
											}
										}
									}
									JOINT LeftHandPinky1
									{
										OFFSET 0.173504 7.976997 -4.467199
										CHANNELS 3 Zrotation Yrotation Xrotation
										JOINT LeftHandPinky2
										{
											OFFSET 0.000000 3.350399 -0.000000
											CHANNELS 3 Zrotation Yrotation Xrotation
											JOINT LeftHandPinky3
											{
												OFFSET -0.000000 2.842763 0.000000
												CHANNELS 3 Zrotation Yrotation Xrotation
												JOINT LeftHandPinky4
												{
													OFFSET -0.000000 2.639709 0.000000
													CHANNELS 3 Zrotation Yrotation Xrotation
													End Site
													{
														OFFSET 0.000000 0.000000 0.000000
													}
												}
											}
										}
									}
									JOINT LeftForeArmEnd
									{
										OFFSET 0.000000 0.000000 0.000000
										CHANNELS 3 Zrotation Yrotation Xrotation
										End Site
										{
											OFFSET 0.000000 0.000000 0.000000
										}
									}
								}
								JOINT LeftArmEnd
								{
									OFFSET 0.000000 0.000000 0.000000
									CHANNELS 3 Zrotation Yrotation Xrotation
									End Site
									{
										OFFSET 0.000000 0.000000 0.000000
									}
								}
							}
						}
					}
				}
			}
		}
	}
	JOINT RightUpLeg
	{
		OFFSET -11.289943 0.000000 0.000000
		CHANNELS 3 Zrotation Yrotation Xrotation
		JOINT RightLeg
		{
			OFFSET -0.000000 -38.200325 0.000000
			CHANNELS 3 Zrotation Yrotation Xrotation
			JOINT RightFoot
			{
				OFFSET -0.000000 -39.900856 -0.000000
				CHANNELS 3 Zrotation Yrotation Xrotation
				JOINT RightToeBase
				{
					OFFSET -0.000000 -0.000000 15.261641
					CHANNELS 3 Zrotation Yrotation Xrotation
					JOINT RightToeBaseEnd
					{
						OFFSET -0.000000 0.000000 7.370709
						CHANNELS 3 Zrotation Yrotation Xrotation
						End Site
						{
							OFFSET 0.000000 0.000000 0.000000
						}
					}
				}
				JOINT RightLegEnd
				{
					OFFSET 0.000000 0.000000 0.000000
					CHANNELS 3 Zrotation Yrotation Xrotation
					End Site
					{
						OFFSET 0.000000 0.000000 0.000000
					}
				}
			}
			JOINT RightUpLegEnd
			{
				OFFSET 0.000000 0.000000 0.000000
				CHANNELS 3 Zrotation Yrotation Xrotation
				End Site
				{
					OFFSET 0.000000 0.000000 0.000000
				}
			}
		}
	}
	JOINT LeftUpLeg
	{
		OFFSET 11.315661 0.000000 -0.000000
		CHANNELS 3 Zrotation Yrotation Xrotation
		JOINT LeftLeg
		{
			OFFSET -0.000000 -38.200325 -0.000000
			CHANNELS 3 Zrotation Yrotation Xrotation
			JOINT LeftFoot
			{
				OFFSET 0.000000 -39.900856 -0.000000
				CHANNELS 3 Zrotation Yrotation Xrotation
				JOINT LeftToeBase
				{
					OFFSET 0.000000 -0.000000 15.261641
					CHANNELS 3 Zrotation Yrotation Xrotation
					JOINT LeftToeBaseEnd
					{
						OFFSET 0.000000 -0.000000 7.539996
						CHANNELS 3 Zrotation Yrotation Xrotation
						End Site
						{
							OFFSET 0.000000 0.000000 0.000000
						}
					}
				}
				JOINT LeftLegEnd
				{
					OFFSET 0.000000 0.000000 0.000000
					CHANNELS 3 Zrotation Yrotation Xrotation
					End Site
					{
						OFFSET 0.000000 0.000000 0.000000
					}
				}
			}
			JOINT LeftUpLegEnd
			{
				OFFSET 0.000000 0.000000 0.000000
				CHANNELS 3 Zrotation Yrotation Xrotation
				End Site
				{
					OFFSET 0.000000 0.000000 0.000000
				}
			}
		}
	}
}
MOTION
Frames: 4
Frame Time: 0.016667
2.403562 86.209152 12.604342 2.246238 18.274118 -13.525529 -1.373298 0.420277 8.410554 5.015504 -1.039776 -2.021098 -5.542491 3.428035 20.543144 0.231089 0.082716 0.293932 4.719383 3.944730 13.434886 -2.934942 2.490528 -6.591799 0.233625 3.776682 -25.433889 0.000000 0.000000 0.000000 98.295853 -0.857341 6.073781 58.995655 -37.256229 4.969833 1.055397 17.018673 36.975891 5.586785 18.895250 -11.685699 10.698303 -1.795897 39.909077 0.000022 0.000047 -26.128759 0.000021 0.000066 -18.199581 0.000016 0.000006 -0.000047 16.855242 0.484507 -7.675596 11.830174 0.010136 -0.138751 11.800731 0.063047 -0.146523 -0.000003 0.000016 -0.000030 17.719364 0.188696 -9.804607 12.422173 -0.014143 -0.079000 12.280701 0.022382 -0.050582 -0.000011 0.000135 -0.000005 20.444353 -0.260531 -11.175873 14.264995 0.029074 0.160218 14.119640 -0.035251 0.128667 -0.000013 0.000092 0.000025 22.083328 -0.684453 -13.997215 14.617105 0.018935 0.586650 14.731787 -0.167778 0.450656 0.000177 -0.000007 -0.000027 0.000000 0.000000 0.000000 0.000000 0.000000 0.000000 -95.228363 0.787512 4.818984 -53.303856 34.579224 2.792484 -1.793827 -8.919082 52.083817 -3.034297 -16.530706 -13.162952 -7.966485 1.547397 41.082165 -0.000004 0.000036 -19.500481 -0.000086 -0.000043 -13.622561 -0.000446 0.000010 0.002269 -8.546156 0.512093 -12.984455 -6.819258 -0.031743 0.169086 -6.915597 0.023159 0.171774 0.000000 0.000104 -0.000007 -10.287281 0.224181 -14.810701 -7.678145 -0.032937 0.070550 -7.554464 0.005942 0.045328 -0.002891 -0.000076 -0.000080 -13.860827 -0.208987 -14.937466 -9.601888 0.056182 -0.090704 -9.577424 -0.017666 -0.072588 -0.000350 0.000012 0.000002 -15.591173 -0.582435 -15.574048 -10.883237 0.113169 -0.258314 -10.772246 -0.044246 -0.254357 -0.000438 -0.000001 -0.000046 0.000000 0.000000 0.000000 0.000000 0.000000 0.000000 -10.482465 -4.190831 18.931534 -0.351821 -1.125483 16.375769 4.404932 -13.142994 10.666856 -0.769900 -0.898821 -27.713003 0.000000 0.000000 0.000000 0.000000 0.000000 0.000000 0.000000 0.000000 0.000000 1.849299 2.200870 14.324951 0.166161 0.779280 13.672306 2.237916 1.335370 13.813536 0.047911 0.069800 -27.620956 0.000000 0.000000 0.000000 0.000000 0.000000 0.000000 0.000000 0.000000 0.000000 
2.359494 86.211006 12.581720 2.227643 18.307640 -13.530921 -1.362066 0.416749 8.409617 5.009259 -1.041273 -1.996076 -5.511387 3.416507 20.558434 0.231328 0.087667 0.295142 4.733210 3.972574 13.442405 -2.926780 2.526829 -6.596917 0.227506 3.779044 -25.440395 0.000000 0.000000 0.000000 98.283791 -0.852755 6.099944 58.930500 -37.316887 4.985301 1.056603 16.953991 36.956051 5.551073 18.909380 -11.694985 10.695814 -1.795104 39.911697 0.000022 0.000047 -26.116081 0.000021 0.000066 -18.190233 0.000016 0.000006 -0.000047 16.829456 0.484862 -7.659009 11.815581 0.012208 -0.144425 11.786206 0.065018 -0.151095 -0.000003 0.000016 -0.000030 17.699175 0.189032 -9.785913 12.407076 -0.013338 -0.080924 12.265399 0.022973 -0.052022 -0.000011 0.000136 -0.000005 20.418358 -0.260831 -11.157278 14.243609 0.028202 0.162811 14.097438 -0.035861 0.130599 -0.000013 0.000126 0.000025 22.058102 -0.686155 -13.983347 14.584373 0.017156 0.590956 14.697885 -0.169712 0.453296 0.000191 -0.000007 -0.000026 0.000000 0.000000 0.000000 0.000000 0.000000 0.000000 -95.232567 0.779684 4.832417 -53.242233 34.601604 2.848306 -1.795796 -8.910276 52.013889 -3.064318 -16.438356 -13.199544 -7.935877 1.543756 41.096104 -0.000004 0.000036 -19.427057 -0.000085 -0.000043 -13.569396 -0.000462 0.000010 0.002204 -8.396378 0.513096 -12.935258 -6.758224 -0.031072 0.168990 -6.855372 0.024007 0.171654 0.000000 0.000099 -0.000007 -10.155298 0.224260 -14.778681 -7.618405 -0.032624 0.070655 -7.491552 0.006143 0.045228 -0.002882 -0.000076 -0.000081 -13.738902 -0.209419 -14.920600 -9.534557 0.055747 -0.091416 -9.511128 -0.018089 -0.072962 -0.000350 0.000012 0.000003 -15.478572 -0.584062 -15.581870 -10.812641 0.111647 -0.260453 -10.698335 -0.045516 -0.255125 -0.000451 -0.000001 -0.000046 0.000000 0.000000 0.000000 0.000000 0.000000 0.000000 -10.443534 -4.215680 18.901917 -0.351787 -1.124279 16.391872 4.386961 -13.147744 10.701405 -0.769150 -0.897591 -27.736433 0.000000 0.000000 0.000000 0.000000 0.000000 0.000000 0.000000 0.000000 0.000000 1.888688 2.194811 14.285083 0.166180 0.777570 13.697320 2.213978 1.315107 13.829705 0.046527 0.074460 -27.622305 0.000000 0.000000 0.000000 0.000000 0.000000 0.000000 0.000000 0.000000 0.000000 
2.316534 86.212975 12.556485 2.207369 18.342422 -13.533327 -1.349826 0.412927 8.407203 5.002544 -1.042598 -1.967510 -5.477855 3.403223 20.569773 0.230684 0.092661 0.297046 4.749996 3.998604 13.449802 -2.918247 2.561080 -6.602234 0.221640 3.780747 -25.444059 0.000000 0.000000 0.000000 98.269104 -0.847474 6.127415 58.860252 -37.378376 5.005650 1.058134 16.887144 36.925961 5.517380 18.907024 -11.694846 10.692389 -1.794120 39.914833 0.000023 0.000047 -26.101349 0.000021 0.000066 -18.179638 0.000016 0.000006 -0.000047 16.797331 0.485256 -7.640720 11.802303 0.014275 -0.150497 11.772667 0.066990 -0.156052 -0.000003 0.000016 -0.000031 17.671967 0.189334 -9.765365 12.392767 -0.012526 -0.082969 12.250978 0.023548 -0.053582 -0.000011 0.000138 -0.000004 20.384678 -0.261165 -11.138633 14.222012 0.027333 0.165541 14.075257 -0.036471 0.132619 -0.000013 0.000158 0.000025 22.024635 -0.687936 -13.970868 14.550223 0.015483 0.595335 14.662480 -0.171548 0.456034 0.000207 -0.000007 -0.000025 0.000000 0.000000 0.000000 0.000000 0.000000 0.000000 -95.232971 0.771205 4.848274 -53.174438 34.628036 2.913252 -1.797044 -8.898076 51.958683 -3.088454 -16.335400 -13.230021 -7.904786 1.539929 41.110382 -0.000004 0.000036 -19.352507 -0.000084 -0.000044 -13.515184 -0.000483 0.000011 0.002146 -8.239718 0.514059 -12.880901 -6.696217 -0.030441 0.168818 -6.793932 0.024802 0.171480 0.000000 0.000096 -0.000007 -10.017788 0.224335 -14.742548 -7.557334 -0.032321 0.070764 -7.427500 0.006335 0.045145 -0.002869 -0.000076 -0.000082 -13.614691 -0.209852 -14.901293 -9.466130 0.055302 -0.092248 -9.443853 -0.018527 -0.073392 -0.000351 0.000012 0.000003 -15.365037 -0.585634 -15.589210 -10.741736 0.110085 -0.263192 -10.623755 -0.046827 -0.256386 -0.000466 -0.000001 -0.000046 0.000000 0.000000 0.000000 0.000000 0.000000 0.000000 -10.403899 -4.241666 18.866226 -0.351748 -1.122856 16.408323 4.368911 -13.154101 10.741318 -0.768324 -0.896668 -27.763384 0.000000 0.000000 0.000000 0.000000 0.000000 0.000000 0.000000 0.000000 0.000000 1.928625 2.186090 14.238961 0.166223 0.775675 13.724554 2.191478 1.290702 13.845005 0.044713 0.079219 -27.623632 0.000000 0.000000 0.000000 0.000000 0.000000 0.000000 0.000000 0.000000 0.000000 
2.274580 86.215050 12.528676 2.185856 18.377495 -13.532998 -1.336767 0.408940 8.403542 4.995415 -1.043652 -1.935484 -5.442234 3.388745 20.576956 0.229087 0.097730 0.299816 4.770620 4.021502 13.457079 -2.909367 2.592238 -6.607242 0.216276 3.781687 -25.444847 0.000000 0.000000 0.000000 98.252190 -0.841818 6.156091 58.785004 -37.437553 5.031507 1.059609 16.820126 36.888161 5.488422 18.889923 -11.683512 10.687892 -1.792941 39.918514 0.000023 0.000047 -26.084427 0.000021 0.000066 -18.167683 0.000016 0.000006 -0.000047 16.759007 0.485701 -7.621303 11.791086 0.016281 -0.156812 11.760930 0.068903 -0.161257 -0.000003 0.000016 -0.000031 17.638052 0.189603 -9.743448 12.379927 -0.011735 -0.085070 12.238103 0.024087 -0.055206 -0.000011 0.000140 -0.000004 20.343811 -0.261532 -11.120533 14.200698 0.026507 0.168295 14.053611 -0.037049 0.134642 -0.000012 0.000187 0.000025 21.983915 -0.689737 -13.960496 14.515396 0.014022 0.599525 14.626339 -0.173201 0.458669 0.000223 -0.000007 -0.000024 0.000000 0.000000 0.000000 0.000000 0.000000 0.000000 -95.229752 0.762215 4.866758 -53.102219 34.656506 2.986577 -1.797193 -8.883362 51.920883 -3.105374 -16.224155 -13.253227 -7.873347 1.535947 41.124897 -0.000004 0.000036 -19.277084 -0.000083 -0.000044 -13.460128 -0.000510 0.000011 0.002093 -8.076258 0.514970 -12.821325 -6.632707 -0.029906 0.168370 -6.730738 0.025490 0.171093 -0.000000 0.000096 -0.000007 -9.875202 0.224408 -14.702154 -7.494294 -0.032049 0.070801 -7.361712 0.006500 0.045016 -0.002850 -0.000076 -0.000083 -13.489381 -0.210281 -14.879635 -9.396226 0.054888 -0.093059 -9.375104 -0.018952 -0.073785 -0.000352 0.000012 0.000003 -15.252187 -0.587104 -15.596316 -10.670487 0.108585 -0.266092 -10.548501 -0.048079 -0.257821 -0.000481 -0.000002 -0.000046 0.000000 0.000000 0.000000 0.000000 0.000000 0.000000 -10.363654 -4.267817 18.825500 -0.351684 -1.121249 16.423771 4.350568 -13.161501 10.786174 -0.767421 -0.895976 -27.793352 0.000000 0.000000 0.000000 0.000000 0.000000 0.000000 0.000000 0.000000 0.000000 1.968708 2.174498 14.187679 0.166283 0.773655 13.753177 2.170221 1.262979 13.860036 0.042479 0.083950 -27.624874 0.000000 0.000000 0.000000 0.000000 0.000000 0.000000 0.000000 0.000000 0.000000 
